<svg width="45" height="45" viewBox="0 0 45 45" fill="none" xmlns="http://www.w3.org/2000/svg">
<path d="M33.6367 9.26412L33.6367 9.26415C33.8828 9.73368 33.8486 10.301 33.5482 10.7375L33.5482 10.7375L23.6739 25.0826L23.6738 25.0827C23.4078 25.4689 22.9691 25.7 22.5 25.7C22.0308 25.7 21.592 25.4689 21.3261 25.0826L11.4518 10.7376C11.4518 10.7375 11.4518 10.7375 11.4518 10.7375C11.1512 10.3009 11.1172 9.73364 11.3632 9.26419L33.6367 9.26412ZM33.6367 9.26412C33.3906 8.79464 32.9046 8.5 32.3743 8.5H12.6257C12.0954 8.5 11.6093 8.79459 11.3632 9.26415L33.6367 9.26412Z" stroke="white" stroke-linejoin="round"/>
<path d="M14.4995 16L15.7499 15.2549C17.3998 14.1152 19.5322 14.1152 21.1822 15.255C21.9826 15.8078 23.017 15.8078 23.8176 15.255C25.4676 14.115 27.6001 14.1151 29.2501 15.2551L30.4995 16" stroke="white"/>
<path d="M22.5 26.28V35.46" stroke="white" stroke-linecap="round"/>
<path d="M30.0601 36L14.9401 36" stroke="white" stroke-linecap="round" stroke-linejoin="round"/>
</svg>
